<?xml version="1.0" standalone="no"?>
<!DOCTYPE svg PUBLIC "-//W3C//DTD SVG 20010904//EN"
 "http://www.w3.org/TR/2001/REC-SVG-20010904/DTD/svg10.dtd">
<svg version="1.0" xmlns="http://www.w3.org/2000/svg"
 width="700.000000pt" height="700.000000pt" viewBox="0 0 700.000000 700.000000"
 preserveAspectRatio="xMidYMid meet">
<metadata>
Created by potrace 1.14, written by Peter Selinger 2001-2017
</metadata>
<g transform="translate(0.000000,700.000000) scale(0.100000,-0.100000)"
fill="#000000" stroke="none">
<path d="M1565 5584 c-364 -49 -719 -211 -989 -451 -43 -38 -46 -43 -34 -62
20 -32 34 -33 111 -2 79 31 248 87 287 96 207 44 261 50 445 50 231 -1 391
-28 612 -106 223 -78 489 -236 653 -387 43 -39 44 -42 20 -43 -14 0 -36 -3
-50 -5 -47 -8 -175 -32 -196 -37 -88 -21 -241 -90 -316 -143 -26 -19 -50 -34
-53 -34 -9 0 -69 -53 -156 -140 -150 -148 -249 -326 -305 -545 -23 -93 -28
-131 -28 -250 -1 -172 6 -229 50 -373 55 -182 152 -342 293 -483 196 -196 429
-306 736 -347 l60 -7 -105 -85 c-275 -220 -564 -358 -880 -421 -101 -20 -145
-23 -350 -23 -222 0 -242 1 -355 28 -131 31 -306 85 -372 116 -49 23 -74 25
-91 8 -17 -17 -15 -24 11 -50 104 -107 392 -282 591 -359 87 -34 223 -76 270
-85 16 -3 32 -7 35 -9 28 -16 370 -25 511 -13 216 19 523 131 745 271 192 122
418 338 564 540 l63 87 163 0 163 0 33 -46 c126 -171 282 -339 416 -447 78
-62 226 -167 237 -167 3 0 28 -14 55 -30 77 -47 294 -138 371 -155 8 -1 35 -8
60 -15 139 -37 253 -49 435 -45 189 4 222 8 345 36 271 63 538 198 785 396 64
52 73 68 52 96 -12 18 -17 17 -92 -13 -151 -61 -240 -88 -410 -125 -91 -20
-440 -28 -558 -13 -176 23 -385 83 -542 157 -147 70 -348 198 -465 297 -14 12
-38 33 -54 46 l-29 24 109 16 c152 23 199 35 322 87 338 141 601 456 682 816
5 22 12 54 15 70 4 17 9 93 10 170 6 261 -57 470 -208 694 -104 155 -304 326
-469 400 -65 30 -173 67 -218 76 -14 3 -47 9 -75 14 -27 6 -72 13 -100 16 -27
3 -51 8 -53 9 -1 2 29 30 68 64 251 212 550 362 855 428 161 34 248 42 425 39
145 -3 219 -10 310 -30 14 -4 36 -8 50 -11 57 -12 192 -54 294 -93 60 -22 113
-41 118 -41 4 0 14 13 23 29 l15 29 -98 74 c-197 151 -357 242 -542 311 -104
39 -267 82 -345 92 -27 4 -66 10 -85 14 -52 11 -293 6 -390 -8 -318 -45 -641
-187 -900 -395 -143 -115 -322 -308 -420 -454 l-35 -51 -160 -1 -160 0 -62 88
c-71 100 -129 168 -228 267 -88 89 -223 202 -286 240 -9 6 -59 36 -112 68
-184 113 -419 199 -627 232 -25 3 -58 9 -75 12 -63 10 -304 9 -390 -3z m2880
-988 c332 -45 653 -279 812 -591 94 -185 116 -283 115 -510 -1 -207 -14 -277
-84 -439 -152 -352 -507 -618 -871 -654 -99 -10 -1755 -9 -1845 1 -97 10 -235
57 -351 119 -281 149 -474 393 -556 703 -47 175 -40 421 16 610 59 198 210
413 387 548 163 125 384 211 557 216 38 1 71 4 73 6 7 6 1696 -2 1747 -9z"/>
<path d="M2614 3891 c-74 -25 -137 -65 -184 -118 -79 -90 -109 -177 -105 -302
2 -64 8 -92 33 -145 41 -87 117 -163 206 -206 63 -30 77 -32 171 -33 96 -1
107 1 168 31 85 42 175 131 212 208 26 54 29 69 29 175 0 109 -2 120 -29 174
-41 80 -118 154 -201 195 -61 29 -80 34 -160 36 -64 1 -106 -3 -140 -15z m232
-67 c145 -49 237 -177 236 -328 -1 -124 -76 -250 -182 -306 -84 -44 -224 -49
-305 -10 -68 33 -145 112 -179 184 -25 53 -27 67 -23 135 9 120 33 179 100
242 51 50 127 86 197 97 67 10 93 8 156 -14z"/>
<path d="M2655 3710 c-83 -37 -136 -110 -139 -194 -3 -71 18 -127 67 -175 140
-139 373 -48 383 149 5 93 -43 171 -134 219 -39 21 -132 21 -177 1z"/>
<path d="M4173 3900 c-62 -14 -148 -64 -198 -114 -100 -101 -143 -254 -109
-391 26 -108 121 -223 229 -276 54 -26 77 -32 142 -33 43 -1 97 2 121 6 129
23 254 131 305 263 14 36 19 77 20 147 0 89 -2 102 -32 162 -40 81 -128 172
-204 210 -49 24 -71 29 -150 31 -50 1 -106 -1 -124 -5z m162 -64 c171 -27 290
-180 279 -359 -5 -90 -36 -158 -104 -226 -70 -71 -112 -88 -225 -96 -140 -10
-264 66 -335 205 -19 37 -23 61 -23 132 0 77 3 93 32 152 51 105 149 178 260
195 45 7 56 7 116 -3z"/>
<path d="M4212 3720 c-51 -12 -109 -56 -137 -104 -88 -150 12 -334 186 -341
88 -4 173 47 216 130 21 40 21 150 0 191 -50 96 -163 149 -265 124z"/>
<path d="M3285 3075 c19 -123 242 -181 378 -98 42 25 85 78 74 89 -3 3 -28
-10 -57 -30 -57 -39 -97 -50 -180 -50 -81 0 -178 45 -207 96 -13 22 -13 22 -8
-7z"/>
</g>
</svg>
